<svg xmlns="http://www.w3.org/2000/svg" xmlns:xlink="http://www.w3.org/1999/xlink" width="63.333" height="80" viewBox="0 0 63.333 80"><defs><linearGradient id="s-about-icon-2-1" x1="1" x2="0" y2="1" gradientUnits="objectBoundingBox"><stop offset="0" stop-color="#f7ae72"></stop><stop offset="1" stop-color="#5d63a9"></stop></linearGradient></defs><path d="M18.762,36.3c2.611,0,2.611,1.3,2.611,2a11.976,11.976,0,0,0,.576,4.635c.54,1.269,1.8,2.778,4.728,2.778a1.886,1.886,0,0,0,0-3.772c-1.277,0-1.541,0-1.541-3.647a5.612,5.612,0,0,0-1.375-3.886,5.612,5.612,0,0,0,1.375-3.886c0-3.647.265-3.647,1.541-3.647a1.886,1.886,0,0,0,0-3.772c-2.927,0-4.188,1.514-4.728,2.778a11.976,11.976,0,0,0-.576,4.635c0,.7,0,2-2.611,2a1.883,1.883,0,1,0,0,3.766Zm24.6,27.249a13.838,13.838,0,0,1-1.988-1.025A.8.8,0,0,1,41,61.891a.668.668,0,0,1,.285-.551,1.5,1.5,0,0,1,.924-.224,7.2,7.2,0,0,1,2.912.775l1-2.518a9.321,9.321,0,0,0-3.809-.869,5.348,5.348,0,0,0-3.327.931,3.1,3.1,0,0,0-1.209,2.6,3.818,3.818,0,0,0,.285,1.545,3.212,3.212,0,0,0,.872,1.155,7.691,7.691,0,0,0,1.765,1.04c.867.39,1.4.65,1.6.775a1.475,1.475,0,0,1,.436.375.735.735,0,0,1,.135.432.771.771,0,0,1-.337.645,1.8,1.8,0,0,1-1.064.25,7.045,7.045,0,0,1-1.842-.271,9.434,9.434,0,0,1-1.936-.749v2.9a7.252,7.252,0,0,0,1.7.588,10,10,0,0,0,2.019.172,6.063,6.063,0,0,0,2.512-.484,3.765,3.765,0,0,0,1.64-1.353,3.564,3.564,0,0,0,.566-1.992,3.255,3.255,0,0,0-.607-2.024,5.453,5.453,0,0,0-2.159-1.5Zm-9.731,0a13.837,13.837,0,0,1-1.988-1.025.8.8,0,0,1-.368-.635.673.673,0,0,1,.291-.551,1.5,1.5,0,0,1,.924-.224,7.2,7.2,0,0,1,2.912.775l1-2.518a9.3,9.3,0,0,0-3.809-.869,5.348,5.348,0,0,0-3.327.931,3.1,3.1,0,0,0-1.209,2.6,3.818,3.818,0,0,0,.285,1.545,3.154,3.154,0,0,0,.872,1.155,7.691,7.691,0,0,0,1.765,1.04c.867.39,1.4.65,1.6.775a1.475,1.475,0,0,1,.436.375.735.735,0,0,1,.135.432.771.771,0,0,1-.337.645,1.8,1.8,0,0,1-1.064.25,7.045,7.045,0,0,1-1.842-.271,9.434,9.434,0,0,1-1.936-.749v2.9a7.252,7.252,0,0,0,1.7.588,10,10,0,0,0,2.019.172,6.064,6.064,0,0,0,2.512-.484,3.765,3.765,0,0,0,1.64-1.353,3.564,3.564,0,0,0,.566-1.992,3.255,3.255,0,0,0-.607-2.024,5.453,5.453,0,0,0-2.159-1.5ZM44.577,32.53c-2.616,0-2.616-1.3-2.616-2a11.976,11.976,0,0,0-.576-4.635c-.54-1.269-1.8-2.778-4.728-2.778a1.886,1.886,0,0,0,0,3.772c1.277,0,1.541,0,1.541,3.647a5.612,5.612,0,0,0,1.375,3.886A5.612,5.612,0,0,0,38.2,38.3c0,3.647-.265,3.647-1.541,3.647a1.886,1.886,0,0,0,0,3.772c2.927,0,4.188-1.514,4.728-2.778a11.976,11.976,0,0,0,.576-4.635c0-.7,0-2,2.616-2a1.883,1.883,0,0,0,0-3.766ZM62.783,13.255,50.109.551A1.875,1.875,0,0,0,48.781,0H1.879A1.881,1.881,0,0,0,0,1.883V78.117A1.881,1.881,0,0,0,1.879,80H61.455a1.881,1.881,0,0,0,1.879-1.883V14.587a1.884,1.884,0,0,0-.55-1.332ZM50.659,6.435,56.908,12.7H50.659ZM3.758,3.766H46.9v2.58H3.758ZM59.571,76.228H3.758V10.118H46.9v4.469a1.881,1.881,0,0,0,1.879,1.883h10.79V76.228ZM22.935,61.178a4.746,4.746,0,0,1,1.432.213,11.8,11.8,0,0,1,1.334.525l1-2.565a8.528,8.528,0,0,0-3.726-.848,6.1,6.1,0,0,0-3.109.765,5.028,5.028,0,0,0-2.024,2.185,7.355,7.355,0,0,0-.706,3.293,6.53,6.53,0,0,0,1.453,4.578,5.386,5.386,0,0,0,4.178,1.581,8.4,8.4,0,0,0,3.41-.666V67.483a14.913,14.913,0,0,1-1.505.536,5.323,5.323,0,0,1-1.547.224q-2.639,0-2.642-3.48a4.624,4.624,0,0,1,.649-2.627,2.077,2.077,0,0,1,1.811-.952Z" fill-rule="evenodd" fill="#ffffff"></path></svg>