<svg xmlns="http://www.w3.org/2000/svg" xmlns:xlink="http://www.w3.org/1999/xlink" width="64" height="80" viewBox="0 0 64 80"><defs><linearGradient id="s-about-icon-1-1" x1="1" x2="0" y2="1" gradientUnits="objectBoundingBox"><stop offset="0" stop-color="#f7ae72"></stop><stop offset="1" stop-color="#5d63a9"></stop></linearGradient></defs><g transform="translate(0)"><path d="M13.7,35.735l9.633,4.683a1.913,1.913,0,0,0,.836.2A1.885,1.885,0,0,0,25,37.035l-6.15-2.992L25,31.052a1.878,1.878,0,0,0,.869-2.521,1.907,1.907,0,0,0-2.542-.862L13.7,32.351a1.875,1.875,0,0,0,0,3.383ZM36.049,23.129a1.909,1.909,0,0,0-2.436,1.13L26.93,42.547a1.886,1.886,0,0,0,1.139,2.417,1.864,1.864,0,0,0,.645.111A1.9,1.9,0,0,0,30.5,43.834l6.683-18.289a1.886,1.886,0,0,0-1.139-2.417ZM63.44,13.259,50.634.555A1.907,1.907,0,0,0,49.291,0H1.9A1.9,1.9,0,0,0,0,1.888V78.112A1.9,1.9,0,0,0,1.9,80H62.1A1.9,1.9,0,0,0,64,78.112V14.585a1.849,1.849,0,0,0-.56-1.332ZM51.193,6.44,57.508,12.7H51.193V6.44ZM3.806,3.775H47.394v2.58H3.806Zm0,72.456V10.124H47.394v4.468a1.9,1.9,0,0,0,1.9,1.888H60.2V76.231H3.806ZM49.159,59.974h-2.93V70.745H53.34V68.393H49.159V59.974ZM21.748,62.351H24.4v8.387h2.93V62.351h2.64V59.974H21.748v2.378Zm16.007,5.265H37.7L35.43,59.967h-3.9V70.738h2.6V66.061q0-1.1-.158-3.076h.066l2.219,7.753h2.792L41.238,63H41.3c-.059,1.169-.092,1.9-.1,2.2s-.013.575-.013.816v4.722h2.693V59.967H39.974l-2.219,7.649Zm.961-36.571,6.15,2.992-6.15,2.992a1.878,1.878,0,0,0-.869,2.521,1.908,1.908,0,0,0,1.705,1.058,1.826,1.826,0,0,0,.836-.2l9.633-4.683a1.875,1.875,0,0,0,0-3.383l-9.633-4.683a1.907,1.907,0,0,0-2.542.862,1.878,1.878,0,0,0,.869,2.521ZM17.244,63.965H13.834V59.974h-2.95V70.745h2.95V66.355h3.411v4.389h2.95V59.974h-2.95Z" transform="translate(0)" fill-rule="evenodd" fill="#ffffff"></path></g></svg>