<svg xmlns="http://www.w3.org/2000/svg" width="80" height="80" viewBox="0 0 80 80"><g transform="translate(-0.529 -280.596)"><path d="M15.193,280.6a4.016,4.016,0,0,0-4,4V327.26a1.335,1.335,0,1,0,2.669,0V293.935H67.191V327.26a1.334,1.334,0,1,0,2.667,0V284.593a4.014,4.014,0,0,0-3.995-4Zm0,2.669H65.863a1.294,1.294,0,0,1,1.328,1.328v6.672H13.865v-6.672a1.294,1.294,0,0,1,1.328-1.328Zm2.669,2.664a1.333,1.333,0,1,0,1.333,1.333A1.333,1.333,0,0,0,17.863,285.929Zm5.333,0a1.333,1.333,0,1,0,1.333,1.333A1.333,1.333,0,0,0,23.2,285.929Zm5.333,0a1.333,1.333,0,1,0,1.333,1.333A1.333,1.333,0,0,0,28.529,285.929ZM47.191,288.6H63.2a1.334,1.334,0,0,0,0-2.667H47.127a1.334,1.334,0,0,0,.064,2.667Zm-42.656,0a4.021,4.021,0,0,0-4.005,3.995v48a4.023,4.023,0,0,0,4.005,4h72a4.016,4.016,0,0,0,4-4v-48a4.014,4.014,0,0,0-4-3.995H73.865a1.334,1.334,0,1,0,0,2.667h2.667a1.294,1.294,0,0,1,1.328,1.328v38.672H3.2V292.594a1.3,1.3,0,0,1,1.339-1.328H7.191a1.334,1.334,0,1,0,0-2.667ZM3.2,333.934H77.86V340.6a1.294,1.294,0,0,1-1.328,1.328h-72A1.3,1.3,0,0,1,3.2,340.6ZM37.8,336.6a1.331,1.331,0,0,0,.064,2.656H43.2a1.332,1.332,0,1,0,.073-2.659ZM33.05,347.156a1.336,1.336,0,0,0-1.245.786,13.816,13.816,0,0,1-3.779,4.651H25.863a4.023,4.023,0,0,0-3.995,4.008v2.656A1.334,1.334,0,0,0,23.2,360.6H57.86a1.334,1.334,0,0,0,1.339-1.339V356.6a4.032,4.032,0,0,0-4.005-4.008H53.032a13.818,13.818,0,0,1-3.779-4.651,1.334,1.334,0,1,0-2.417,1.128,15.068,15.068,0,0,0,2.383,3.523H31.839a15.07,15.07,0,0,0,2.383-3.523A1.333,1.333,0,0,0,33.05,347.156Zm-7.188,8.107H55.193a1.311,1.311,0,0,1,1.339,1.339v1.328h-32V356.6A1.3,1.3,0,0,1,25.863,355.262Z" transform="translate(0 0)" fill="#ffffff"></path><path d="M40.529,296.6a16,16,0,1,0,16,15.992A16.009,16.009,0,0,0,40.529,296.6ZM39.2,299.325v6.607h-4.37a19.7,19.7,0,0,1,3.357-6.456c.335-.059.67-.117,1.013-.151Zm2.669,0c.349.035.691.093,1.031.154a19.713,19.713,0,0,1,3.341,6.453H41.868Zm5.138,1.609a13.351,13.351,0,0,1,5.07,5h-3.1A23.251,23.251,0,0,0,47.006,300.935Zm-12.974.01a23.13,23.13,0,0,0-1.969,4.987H28.98A13.349,13.349,0,0,1,34.032,300.945ZM27.8,308.6H39.2v8H34.212a23.584,23.584,0,0,1-.349-4.005,1.333,1.333,0,1,0-2.667,0,26.013,26.013,0,0,0,.328,4.005H27.8a13.414,13.414,0,0,1,0-8Zm14.068,0h4.974a23.032,23.032,0,0,1,0,8H41.868Zm7.661,0h3.727a13.414,13.414,0,0,1,0,8H49.529a24.562,24.562,0,0,0,0-8ZM28.98,319.257h3.094a23.2,23.2,0,0,0,1.982,5A13.352,13.352,0,0,1,28.98,319.257Zm5.844,0H39.2v6.607c-.351-.035-.694-.093-1.036-.154A19.8,19.8,0,0,1,34.824,319.257Zm7.044,0h4.367a19.733,19.733,0,0,1-3.344,6.453c-.338.06-.677.119-1.023.154Zm7.109,0h3.1a13.351,13.351,0,0,1-5.07,5A23.247,23.247,0,0,0,48.977,319.257Z" fill="#f7ae72"></path></g></svg>