<svg xmlns="http://www.w3.org/2000/svg" width="80" height="80" viewBox="0 0 80 80"><g transform="translate(-0.529 -280.596)"><path d="M4.534,280.6a4.021,4.021,0,0,0-4.005,3.995v45.336a4.021,4.021,0,0,0,4.005,3.995H17.86a1.333,1.333,0,1,0,0-2.656H4.534A1.311,1.311,0,0,1,3.2,329.927V293.922H56.532v9.341a1.334,1.334,0,1,0,2.667,0V284.591a4.021,4.021,0,0,0-4.005-3.995Zm0,2.667H55.193a1.3,1.3,0,0,1,1.339,1.328v6.674H3.2v-6.674a1.3,1.3,0,0,1,1.339-1.328ZM7.2,285.927a1.333,1.333,0,1,0,1.333,1.333A1.333,1.333,0,0,0,7.2,285.927Zm5.333,0a1.333,1.333,0,1,0,1.333,1.333A1.333,1.333,0,0,0,12.529,285.927Zm5.333,0A1.333,1.333,0,1,0,19.2,287.26a1.333,1.333,0,0,0-1.333-1.333ZM36.442,288.6l16.085,0a1.335,1.335,0,0,0,0-2.669H36.463a1.334,1.334,0,0,0-.021,2.667ZM15.193,299.258a1.334,1.334,0,1,0,0,2.667H39.2a1.334,1.334,0,1,0,0-2.667Zm29.341,0a1.334,1.334,0,1,0,0,2.667h5.323a1.334,1.334,0,1,0,0-2.667Zm-34.677,8a1.335,1.335,0,0,0,0,2.669h8a1.335,1.335,0,0,0,0-2.669Zm16.005,0a4.023,4.023,0,0,0-3.995,4.008v45.323a4.023,4.023,0,0,0,3.995,4.008H76.532a4.025,4.025,0,0,0,4-4.008V311.266a4.025,4.025,0,0,0-4-4.008Zm0,2.669H76.532a1.3,1.3,0,0,1,1.328,1.339v6.664H24.534v-6.664a1.3,1.3,0,0,1,1.328-1.339Zm2.667,2.667a1.333,1.333,0,1,0,1.333,1.333A1.333,1.333,0,0,0,28.529,312.594Zm5.333,0a1.333,1.333,0,1,0,1.333,1.333A1.333,1.333,0,0,0,33.862,312.594Zm5.333,0a1.333,1.333,0,1,0,1.333,1.333A1.333,1.333,0,0,0,39.2,312.594Zm18.664,2.667H73.865a1.334,1.334,0,0,0,0-2.667H57.8a1.334,1.334,0,0,0,.064,2.667Zm-48,2.669h8a1.335,1.335,0,0,0,0-2.669H9.795a1.335,1.335,0,1,0,.065,2.669ZM24.534,320.6H77.86v35.992a1.3,1.3,0,0,1-1.328,1.341H25.863a1.3,1.3,0,0,1-1.328-1.341ZM9.86,325.93h8a1.334,1.334,0,0,0,0-2.667H9.795a1.334,1.334,0,0,0,.065,2.667ZM60.9,329.566a3.3,3.3,0,0,1-.006,4.711l-6.7,6.677a3.3,3.3,0,0,1-4.318.336,1.334,1.334,0,0,0-1.581,2.148,6.005,6.005,0,0,0,7.781-.6l6.7-6.685.011-.005a5.991,5.991,0,0,0-4.252-10.224,5.926,5.926,0,0,0-4.238,1.758l-1.812,1.755a1.333,1.333,0,1,0,1.854,1.917l1.844-1.786a3.285,3.285,0,0,1,4.708-.005ZM41.493,348.933a3.293,3.293,0,0,1,0-4.706l6.7-6.682a3.292,3.292,0,0,1,4.31-.336,1.334,1.334,0,1,0,1.586-2.143,6,6,0,0,0-7.786.6l-6.7,6.685a.041.041,0,0,0-.011.01,5.993,5.993,0,0,0,8.495,8.456l1.812-1.752a1.333,1.333,0,1,0-1.852-1.909l-1.85,1.781a3.28,3.28,0,0,1-4.7,0Z" transform="translate(0 0)" fill="#ffffff"></path><path d="M69.839,281.914a1.333,1.333,0,0,0-.917.4l-4.005,4a1.333,1.333,0,0,0,0,1.888l4.005,4a1.333,1.333,0,1,0,1.88-1.88L69.089,288.6H71.2a3.956,3.956,0,0,1,4,3.995v8a1.333,1.333,0,1,0,2.667,0v-8A6.677,6.677,0,0,0,71.2,285.93H69.081l1.721-1.721a1.333,1.333,0,0,0-.964-2.294ZM7.172,339.258a1.347,1.347,0,0,0-.917.393l-4.005,3.995a1.337,1.337,0,0,0,1.891,1.891l1.721-1.727v7.456a6.677,6.677,0,0,0,6.664,6.664h2.667a1.335,1.335,0,0,0,0-2.669H12.527a3.956,3.956,0,0,1-4-3.995v-7.451l1.724,1.721a1.336,1.336,0,1,0,1.888-1.891l-4.005-3.995a1.333,1.333,0,0,0-.964-.393Z" fill="#f7ae72"></path></g></svg>