<svg xmlns="http://www.w3.org/2000/svg" width="80" height="80" viewBox="0 0 80 80"><g transform="translate(-1 -1)"><path d="M70.677,57.782V52.613a6.459,6.459,0,0,0-6.452-6.452H53.364a36.37,36.37,0,0,0,2.875-6.925l4.9-3.924a4.766,4.766,0,0,0-2.823-8.489l2.875-7.9A13.355,13.355,0,0,0,48.644,1H37.689A43.7,43.7,0,0,0,14.51,7.648a1.29,1.29,0,0,0,.276,2.323L17.9,11a3.314,3.314,0,0,1,2.028,4.373,5.894,5.894,0,0,0,.2,4.825l3.326,6.646a4.76,4.76,0,0,0-2.591,8.466l4.9,3.924a36.37,36.37,0,0,0,2.872,6.925H17.774a6.459,6.459,0,0,0-6.452,6.452v5.169A16.8,16.8,0,0,0,1,73.258V79.71A1.29,1.29,0,0,0,2.29,81H79.71A1.29,1.29,0,0,0,81,79.71V73.258A16.8,16.8,0,0,0,70.677,57.782ZM51.323,26.806H43.581a1.29,1.29,0,0,0-1.29,1.29v1.29H39.71V28.1a1.29,1.29,0,0,0-1.29-1.29H26.806v-1.89l8.054-5.369a10.523,10.523,0,0,1,5.855-1.773A13.177,13.177,0,0,0,48.921,14.9l2.108-1.686,2.213,3.321a11.573,11.573,0,0,1,1.951,6.441v3.835Zm-1.29,2.581v3.871a1.29,1.29,0,0,1-1.29,1.29H46.161a1.29,1.29,0,0,1-1.29-1.29V29.387Zm-12.9,0v3.871a1.29,1.29,0,0,1-1.29,1.29H33.258a1.29,1.29,0,0,1-1.29-1.29V29.387Zm23.226,2.194a2.186,2.186,0,0,1-.823,1.714l-2.339,1.871a36.312,36.312,0,0,0,.561-5.778h.408A2.194,2.194,0,0,1,60.355,31.581ZM22.32,16.334a5.894,5.894,0,0,0-3.606-7.779l-.395-.129a41.114,41.114,0,0,1,19.37-4.845H48.644A10.774,10.774,0,0,1,58.769,18.032l-1.121,3.084a14.15,14.15,0,0,0-2.258-6.023L52.4,10.6a1.292,1.292,0,0,0-1.88-.292L47.31,12.881a10.6,10.6,0,0,1-6.594,2.312A13.1,13.1,0,0,0,33.428,17.4L24.8,23.152a1.28,1.28,0,0,0-.219.188l-2.147-4.3A3.312,3.312,0,0,1,22.32,16.334ZM22.47,33.3a2.194,2.194,0,0,1,1.369-3.91h.405a36.311,36.311,0,0,0,.561,5.781Zm4.357-3.91h2.56v3.871a3.871,3.871,0,0,0,3.871,3.871h2.581a3.871,3.871,0,0,0,3.871-3.871v-1.29H42.29v1.29a3.871,3.871,0,0,0,3.871,3.871h2.581a3.871,3.871,0,0,0,3.871-3.871V29.387h2.56a33.785,33.785,0,0,1-4.788,16.774H31.615a33.785,33.785,0,0,1-4.788-16.774ZM17.774,48.742H64.226A3.871,3.871,0,0,1,68.1,52.613V78.419H13.9V52.613a3.871,3.871,0,0,1,3.871-3.871ZM3.581,73.258a14.214,14.214,0,0,1,7.742-12.636v17.8H3.581Zm74.839,5.161H70.677v-17.8a14.215,14.215,0,0,1,7.742,12.636Z" transform="translate(0 0)" fill="#ffffff"></path><path d="M33.161,60.323A5.161,5.161,0,1,0,28,55.161,5.161,5.161,0,0,0,33.161,60.323Zm0-7.742a2.581,2.581,0,1,1-2.581,2.581A2.581,2.581,0,0,1,33.161,52.581Z" transform="translate(7.839 14.226)" fill="#f7ae72"></path><path d="M26.539,51.44l1.825-1.825-4.249-4.249,4.249-4.249-1.825-1.825-5.161,5.161a1.29,1.29,0,0,0,0,1.825Z" transform="translate(5.807 11.117)" fill="#ffffff"></path><path d="M39.118,51.44l5.161-5.161a1.29,1.29,0,0,0,0-1.825l-5.161-5.161-1.825,1.825,4.249,4.249-4.249,4.249Z" transform="translate(10.537 11.117)" fill="#ffffff"></path><rect width="12.903" height="2.581" transform="matrix(0.6, -0.8, 0.8, 0.6, 36.096, 60.87)" fill="#ffffff"></rect></g></svg>