<svg xmlns="http://www.w3.org/2000/svg" width="120" height="80.002" viewBox="0 0 120 80.002"><g transform="translate(-0.529 -283.242)"><path d="M6.53,283.242a6.032,6.032,0,0,0-6,6v56a6.032,6.032,0,0,0,6,6H34.567a9.9,9.9,0,0,1-.254,1.32,13.2,13.2,0,0,1-4.52,6.676h-3.27a2,2,0,1,0,0,4H50.532a2,2,0,1,0,0-4H35.324a15.886,15.886,0,0,0,2.86-5.664,12.221,12.221,0,0,0,.363-2.332H50.532a2,2,0,1,0,0-4h-44a1.953,1.953,0,0,1-2-2v-10h46a2,2,0,1,0,0-4h-46v-42a1.954,1.954,0,0,1,2-2h76a1.953,1.953,0,0,1,2,2,2,2,0,1,0,4,0,6.032,6.032,0,0,0-6-6Zm56,11.993a6.049,6.049,0,0,0-6.008,6.012v56a6.032,6.032,0,0,0,6.008,5.993H86.527a2,2,0,1,0,0-4H62.533a1.953,1.953,0,0,1-2.008-1.992v-10h26a2,2,0,1,0,0-4h-26V307.239H100.54v6.012a2,2,0,1,0,4,0v-12a6.049,6.049,0,0,0-6.008-6.012Zm0,4h36a1.966,1.966,0,0,1,2.008,2.008v1.992H60.525v-1.992A1.966,1.966,0,0,1,62.533,299.238Zm36,20.005a6.022,6.022,0,0,0-6,5.993V357.25a6.022,6.022,0,0,0,6,5.993h16a6.018,6.018,0,0,0,5.993-5.993V325.236a6.018,6.018,0,0,0-5.993-5.993Zm0,4h16a1.941,1.941,0,0,1,1.992,1.992v2.01H96.539v-2.012a1.94,1.94,0,0,1,1.992-1.992Zm-1.992,8h19.99v19.99H96.539Zm-54.011,12h4a2,2,0,0,0,0-4h-4.1a2,2,0,1,0,.1,4Zm36.014,7.985a2,2,0,1,0,0,4h4a2,2,0,1,0,0-4Zm18,4h19.99v2.012a1.941,1.941,0,0,1-1.992,1.992h-16a1.94,1.94,0,0,1-1.992-1.992Z" transform="translate(0 0)" fill="#ffffff"></path><path d="M10.5,299.208a2,2,0,0,0-1.977,2.039v4a2,2,0,1,0,4,0v-4A2,2,0,0,0,10.5,299.208Zm0,12a2,2,0,0,0-1.977,2.039v11.985a2,2,0,1,0,4,0V313.25A2,2,0,0,0,10.5,311.211Zm56,0a2,2,0,0,0-1.977,2.039v4a2,2,0,1,0,4,0v-4A2,2,0,0,0,66.506,311.211Zm0,12a2,2,0,0,0-1.977,2.02c0,14.672,4,14.672,4,0A2,2,0,0,0,66.506,323.216Z" fill="#f7ae72"></path></g></svg>