<svg xmlns="http://www.w3.org/2000/svg" xmlns:xlink="http://www.w3.org/1999/xlink" width="63.333" height="80" viewBox="0 0 63.333 80"><defs><linearGradient id="s-about-icon-3-1" x1="1" x2="0" y2="1" gradientUnits="objectBoundingBox"><stop offset="0" stop-color="#f7ae72"></stop><stop offset="1" stop-color="#5d63a9"></stop></linearGradient></defs><g transform="translate(-0.01 0.01)"><path d="M23.6,48.691a8.874,8.874,0,0,0,1.8-6V21.659H20.646V42.724a5.429,5.429,0,0,1-.676,3.051,2.532,2.532,0,0,1-2.241.976,9.269,9.269,0,0,1-2.241-.306v3.969a10.415,10.415,0,0,0,2.808.337,6.659,6.659,0,0,0,5.308-2.06Zm12.389,14.85A14.4,14.4,0,0,1,34,62.519a.8.8,0,0,1-.367-.635.678.678,0,0,1,.286-.554,1.526,1.526,0,0,1,.923-.225,7.22,7.22,0,0,1,2.913.774l1-2.517a9.318,9.318,0,0,0-3.809-.867,5.317,5.317,0,0,0-3.326.933,3.093,3.093,0,0,0-1.209,2.6,3.771,3.771,0,0,0,.286,1.541,3.156,3.156,0,0,0,.873,1.154,7.633,7.633,0,0,0,1.765,1.038c.865.391,1.4.651,1.6.774a1.628,1.628,0,0,1,.437.376.723.723,0,0,1,.135.434.773.773,0,0,1-.336.647,1.8,1.8,0,0,1-1.062.252,7.2,7.2,0,0,1-1.843-.267,9.57,9.57,0,0,1-1.935-.747v2.9a7.507,7.507,0,0,0,1.7.589,10.177,10.177,0,0,0,2.016.17,6.066,6.066,0,0,0,2.511-.484A3.73,3.73,0,0,0,38.2,69.055a3.564,3.564,0,0,0,.568-1.994,3.259,3.259,0,0,0-.606-2.025A5.485,5.485,0,0,0,36,63.529Zm-10.971,6.3h0a2.964,2.964,0,0,1-.348,1.665,1.314,1.314,0,0,1-1.151.488,3.029,3.029,0,0,1-.641-.062c-.2-.043-.382-.077-.56-.112v2.532a7.894,7.894,0,0,0,1.688.174,3.979,3.979,0,0,0,3.21-1.258,5.588,5.588,0,0,0,1.07-3.71V58.673H25.023V69.837ZM38.81,31.161A28.82,28.82,0,0,1,35.8,29.585a3.244,3.244,0,0,1-.927-.906,2.05,2.05,0,0,1-.294-1.1,2.078,2.078,0,0,1,.722-1.646,3.039,3.039,0,0,1,2.071-.631,9.425,9.425,0,0,1,2.31.294,22.224,22.224,0,0,1,2.967,1.03l1.534-3.706a23,23,0,0,0-3.322-1.169,13.226,13.226,0,0,0-3.338-.414,8.361,8.361,0,0,0-5.574,1.708,5.82,5.82,0,0,0-2.016,4.689,5.932,5.932,0,0,0,.614,2.769,6.977,6.977,0,0,0,1.642,2.076,13.67,13.67,0,0,0,3.083,1.863,28.587,28.587,0,0,1,2.909,1.522,4.133,4.133,0,0,1,1.082.991,1.963,1.963,0,0,1,.367,1.177,2.053,2.053,0,0,1-.838,1.785,4.081,4.081,0,0,1-2.4.6A11.454,11.454,0,0,1,33.51,40.1a26.312,26.312,0,0,1-3.844-1.429V43.1a14.265,14.265,0,0,0,6.351,1.351A9.471,9.471,0,0,0,42.1,42.7a5.822,5.822,0,0,0,2.186-4.8,5.918,5.918,0,0,0-1.167-3.713,11.948,11.948,0,0,0-4.311-3.02ZM62.791,13.248,50.117.544A1.881,1.881,0,0,0,48.788-.01H1.891A1.883,1.883,0,0,0,.01,1.876V78.1A1.883,1.883,0,0,0,1.891,79.99H61.462A1.883,1.883,0,0,0,63.343,78.1V14.581A1.874,1.874,0,0,0,62.791,13.248ZM50.669,6.429l6.25,6.265h-6.25ZM3.773,3.762H46.91V6.34H3.773ZM59.581,76.218H3.773v-66.1H46.91v4.465a1.883,1.883,0,0,0,1.881,1.886H59.581V76.218Z" fill-rule="evenodd" fill="#ffffff"></path></g></svg>